<svg width="24" height="24" xmlns="http://www.w3.org/2000/svg"><g fill="none" stroke="#000" stroke-linecap="round" stroke-linejoin="round"><path d="m11.13333,19.32246c-4.91061,-4.7669 -9.59444,-8.86166 -9.59444,-12.39445c0,-3.26256 2.67598,-4.46741 4.60621,-4.46741c1.14436,0 3.62059,0.43116 4.98824,3.83572c1.38683,-3.41489 3.8936,-3.82712 4.99434,-3.82712c2.21544,0 4.6001,1.39504 4.6001,4.4588c0,3.50181 -4.47973,7.42273 -9.59444,12.39445m4.99434,-17.71386c-1.92151,0 -3.8779,0.89675 -4.99434,2.78664c-1.12081,-1.8985 -3.07197,-2.79525 -4.98824,-2.79525c-2.77628,0 -5.47843,1.88215 -5.47843,5.32801c0,4.01129 4.85915,8.11466 10.46667,13.60532c5.60839,-5.49067 10.46667,-9.59404 10.46667,-13.60532c0,-3.45189 -2.69953,-5.31941 -5.47232,-5.31941"/></g></svg>